<svg width="127" height="30" fill="none" xmlns="http://www.w3.org/2000/svg"><path d="M2.544 23V9.536c0-1.424.376-2.472 1.128-3.144.752-.672 1.856-1.008 3.312-1.008h1.584v1.92H6.6c-.592 0-1.048.168-1.368.504-.32.32-.48.768-.48 1.344V23H2.544ZM.768 12.056v-1.728h8.04v1.728H.768ZM10.775 23V10.184h1.824v5.28h-.096c0-1.872.408-3.24 1.224-4.104.832-.88 2.072-1.32 3.72-1.32h.432v2.064h-.816c-1.28 0-2.264.344-2.952 1.032-.688.672-1.032 1.648-1.032 2.928V23h-2.304Zm15.127.432c-1.12 0-2.104-.192-2.952-.576a6.81 6.81 0 0 1-2.16-1.512 6.901 6.901 0 0 1-1.32-2.136 6.91 6.91 0 0 1-.432-2.4v-.432c0-.816.152-1.616.456-2.4.304-.8.752-1.512 1.344-2.136a6.337 6.337 0 0 1 2.16-1.512c.848-.384 1.816-.576 2.904-.576 1.088 0 2.056.192 2.904.576a6.337 6.337 0 0 1 2.16 1.512 6.354 6.354 0 0 1 1.344 2.136c.304.784.456 1.584.456 2.4v.432c0 .816-.152 1.616-.456 2.4a6.348 6.348 0 0 1-1.32 2.136c-.576.624-1.288 1.128-2.136 1.512-.848.384-1.832.576-2.952.576Zm0-2.064c.96 0 1.776-.208 2.448-.624a4.166 4.166 0 0 0 1.56-1.728c.368-.72.552-1.528.552-2.424 0-.912-.184-1.728-.552-2.448a4.17 4.17 0 0 0-1.584-1.704c-.672-.416-1.48-.624-2.424-.624-.928 0-1.736.208-2.424.624a4.17 4.17 0 0 0-1.584 1.704c-.368.72-.552 1.536-.552 2.448 0 .896.176 1.704.528 2.424.368.72.888 1.296 1.56 1.728.688.416 1.512.624 2.472.624ZM35.737 23V10.184h1.824v5.496h-.288c0-1.264.168-2.328.504-3.192.352-.88.88-1.544 1.584-1.992.704-.464 1.592-.696 2.664-.696h.096c1.616 0 2.808.504 3.576 1.512.784 1.008 1.176 2.464 1.176 4.368V23h-2.304v-7.8c0-.992-.28-1.784-.84-2.376-.56-.608-1.328-.912-2.304-.912-1.008 0-1.824.312-2.448.936-.624.624-.936 1.456-.936 2.496V23h-2.304Zm19.863.144c-.96 0-1.792-.136-2.496-.408a3.173 3.173 0 0 1-1.608-1.392c-.368-.672-.552-1.576-.552-2.712V6.296h2.208V18.92c0 .688.184 1.224.552 1.608.384.368.92.552 1.608.552h2.256v2.064H55.6Zm-6.864-11.232v-1.728h8.832v1.728h-8.832Z" fill="#fff"/><path d="M64.136 23.456c-1.552 0-2.864-.248-3.936-.744-1.056-.496-1.864-1.176-2.424-2.04-.56-.88-.84-1.872-.84-2.976h3.336c0 .464.128.92.384 1.368.256.432.664.784 1.224 1.056.576.272 1.328.408 2.256.408.832 0 1.528-.12 2.088-.36s.976-.552 1.248-.936c.272-.4.408-.848.408-1.344 0-.624-.264-1.12-.792-1.488-.528-.384-1.344-.624-2.448-.72l-1.536-.12c-1.68-.144-3.024-.664-4.032-1.56-.992-.912-1.488-2.112-1.488-3.6 0-1.12.264-2.08.792-2.88.528-.816 1.264-1.44 2.208-1.872.96-.448 2.08-.672 3.36-.672 1.328 0 2.472.232 3.432.696.96.464 1.704 1.12 2.232 1.968.528.832.792 1.816.792 2.952h-3.336c0-.48-.12-.92-.36-1.32-.224-.416-.568-.744-1.032-.984-.448-.256-1.024-.384-1.728-.384-.672 0-1.232.112-1.68.336-.448.224-.784.528-1.008.912-.224.384-.336.8-.336 1.248 0 .544.2 1.024.6 1.44.4.4 1.032.632 1.896.696l1.536.144c1.248.096 2.344.36 3.288.792.944.432 1.672 1.016 2.184 1.752.528.736.792 1.624.792 2.664 0 1.104-.288 2.08-.864 2.928-.576.832-1.4 1.48-2.472 1.944-1.056.464-2.304.696-3.744.696Zm15.116-.288c-1.2 0-2.192-.152-2.976-.456a3.342 3.342 0 0 1-1.728-1.584c-.384-.752-.576-1.76-.576-3.024l.024-11.808h3.12l-.024 12.024c0 .64.168 1.136.504 1.488.352.336.848.504 1.488.504h2.04v2.856h-1.872Zm-7.344-10.752V9.968h9.216v2.448h-9.216Zm15.976 10.992c-1.504 0-2.672-.496-3.504-1.488-.816-.992-1.224-2.464-1.224-4.416v-7.56h3.336v7.848c0 .8.224 1.44.672 1.92.448.464 1.056.696 1.824.696s1.392-.248 1.872-.744c.496-.496.744-1.168.744-2.016V9.944h3.336V23H92.3v-5.544h.264c0 1.312-.168 2.408-.504 3.288-.336.88-.84 1.544-1.512 1.992-.672.448-1.512.672-2.52.672h-.144Zm15.808.024a6.218 6.218 0 0 1-2.52-.504 5.883 5.883 0 0 1-1.992-1.416 6.483 6.483 0 0 1-1.296-2.112 7.502 7.502 0 0 1-.456-2.64v-.504c0-.928.144-1.8.432-2.616a6.891 6.891 0 0 1 1.248-2.136 5.697 5.697 0 0 1 1.944-1.416c.768-.352 1.616-.528 2.544-.528 1.024 0 1.92.224 2.688.672.784.432 1.408 1.088 1.872 1.968.464.88.72 1.984.768 3.312l-.984-1.152V5.48h3.336V23h-2.64v-5.544h.576c-.048 1.328-.32 2.44-.816 3.336-.496.88-1.152 1.544-1.968 1.992-.8.432-1.712.648-2.736.648Zm.744-2.808c.656 0 1.256-.144 1.8-.432a3.362 3.362 0 0 0 1.296-1.296c.336-.576.504-1.248.504-2.016v-.96c0-.768-.168-1.408-.504-1.92a3.283 3.283 0 0 0-1.32-1.2 3.737 3.737 0 0 0-1.776-.432c-.72 0-1.36.176-1.92.528-.544.336-.976.816-1.296 1.44-.304.624-.456 1.352-.456 2.184 0 .832.16 1.56.48 2.184.32.608.752 1.08 1.296 1.416.56.336 1.192.504 1.896.504Zm9.773 7.512V25.28h2.448c.464 0 .848-.064 1.152-.192.32-.112.584-.304.792-.576.208-.256.368-.616.48-1.08l3.504-13.464h3.192l-3.864 14.184c-.256.976-.616 1.752-1.08 2.328a3.834 3.834 0 0 1-1.8 1.272c-.72.256-1.616.384-2.688.384h-2.136Zm4.056-5.424v-2.64h2.784v2.64h-2.784Zm-1.128 0-4.224-12.744h3.36l4.008 12.744h-3.144Z" fill="#DDF247"/></svg>